# AST/ASF file generated using VICON BodyLanguage
# -----------------------------------------------
:version 1.10
:name VICON
:units
  mass 1.0
  length 0.45
  angle deg
:documentation
   .ast/.asf automatically generated from VICON data using
   VICON BodyBuilder and BodyLanguage model FoxedUp or BRILLIANT.MOD
:root
   order TX TY TZ RX RY RZ
   axis XYZ
   position 0 0 0  
   orientation 0 0 0 
:bonedata
  begin
     id 1 
     name lhipjoint
     direction 0.589753 -0.68606 0.426044 
     length 2.54082 
     axis 0 0 0  XYZ
  end
  begin
     id 2 
     name lfemur
     direction 0.34202 -0.939693 0  
     length 7.04539  
     axis 0 0 20  XYZ
    dof rx ry rz
    limits (-160.0 20.0)
           (-70.0 70.0)
           (-60.0 70.0)
  end
  begin
     id 3 
     name ltibia
     direction 0.34202 -0.939693 0   
     length 7.83772   
     axis 0 0 20   XYZ
    dof rx
    limits (-10.0 170.0)
  end
  begin
     id 4 
     name lfoot
     direction 0.0596604 -0.163915 0.984669   
     length 2.39542   
     axis -90 7.62852e-016 20   XYZ
    dof rx rz
    limits (-45.0 90.0)
           (-70.0 20.0)
  end
  begin
     id 5 
     name ltoes
     direction 1.53514e-011 -4.21954e-011 1   
     length 1.2047   
     axis -90 7.62852e-016 20   XYZ
    dof rx
    limits (-90.0 20.0)
  end
  begin
     id 6 
     name rhipjoint
     direction -0.580585 -0.69168 0.429534   
     length 2.52018  
     axis 0 0 0  XYZ 
  end
  begin
     id 7 
     name rfemur
     direction -0.34202 -0.939693 0   
     length 7.0101   
     axis 0 0 -20   XYZ
    dof rx ry rz
    limits (-160.0 20.0)
           (-70.0 70.0)
           (-70.0 60.0)
  end
  begin
     id 8 
     name rtibia
     direction -0.34202 -0.939693 0   
     length 7.70628   
     axis 0 0 -20   XYZ
    dof rx
    limits (-10.0 170.0)
 end
 begin
     id 9 
     name rfoot
     direction -0.0696237 -0.19129 0.979061   
     length 2.52466  
     axis -90 -7.62852e-016 -20   XYZ
    dof rx rz
    limits (-45.0 90.0)
           (-20.0 70.0)
  end
  begin
     id 10 
     name rtoes
     direction -1.53519e-011 -4.21793e-011 1   
     length 1.266   
     axis -90 -7.62852e-016 -20   XYZ
    dof rx
    limits (-90.0 20.0)
  end
  begin
     id 11 
     name lowerback
     direction 0.00381965 0.995707 -0.0924856   
     length 2.20825   
     axis 0 0 0   XYZ
    dof rx ry rz
    limits (-20.0 45.0)
           (-30.0 30.0)
           (-30.0 30.0)
  end
  begin
     id 12 
     name upperback
     direction -0.0139043 0.999634 -0.0231929   
     length 2.21517   
     axis 0 0 0   XYZ
    dof rx ry rz
    limits (-20.0 45.0)
           (-30.0 30.0)
           (-30.0 30.0)
  end
  begin
     id 13 
     name thorax
     direction -0.0143933 0.999691 0.0202892   
     length 2.22911   
     axis 0 0 0   XYZ
    dof rx ry rz
    limits (-20.0 45.0)
           (-30.0 30.0)
           (-30.0 30.0)
  end
  begin
     id 14 
     name lowerneck
     direction -0.0251153 0.981819 0.188153   
     length 1.61782   
     axis 0 0 0   XYZ
    dof rx ry rz
    limits (-20.0 45.0)
           (-30.0 30.0)
           (-30.0 30.0)
  end
  begin
     id 15 
     name upperneck
     direction 0.0563891 0.969357 -0.239095   
     length 1.64526   
     axis 0 0 0   XYZ
    dof rx ry rz
    limits (-20.0 45.0)
           (-30.0 30.0)
           (-30.0 30.0)
  end
  begin
     id 16
     name head
     direction 0.0208328 0.99459 -0.101773  
     length 1.67436  
     axis 0 0 0   XYZ
    dof rx ry rz
    limits (-20.0 45.0)
           (-30.0 30.0)
           (-30.0 30.0)
  end
  begin
     id 17 
     name lclavicle
     direction 0.917689 0.397224 0.00772059  
     length 3.31102  
     axis 0 0 0   XYZ
    dof ry rz
    limits (-20.0 10.0)
           (0.0 20.0)
  end
  begin
     id 18 
     name lhumerus
     direction 1 -4.4896e-011 2.32308e-027   
     length 5.25537   
     axis 180 -30 -90   XYZ
    dof rx ry rz
    limits (-60.0 90.0)
           (-90.0 90.0)
           (-90.0 90.0)
  end
  begin
     id 19
     name lradius
     direction 1 -4.49005e-011 -2.04271e-027   
     length 3.38855   
     axis 180 -30 -90   XYZ
    dof rx
    limits (-10.0 170.0)
  end
  begin
     id 20
     name lwrist
     direction 1 -4.48892e-011 2.56952e-028   
     length 1.69428   
     axis -5.12785e-016 90 90   XYZ
    dof ry
    limits (-180.0 0.0)
 end
  begin
     id 21 
     name lhand
     direction 1 -4.48966e-011 5.13905e-028   
     length 0.614516   
     axis -3.27915e-016 90 90   XYZ
    dof rx rz
    limits (-90.0 90.0)
           (-45.0 45.0)
  end
  begin
     id 22 
     name lfingers
     direction 1 -4.48979e-011 1.02781e-027   
     length 0.495439   
     axis -6.5583e-016 90 90   XYZ
    dof rx
    limits (0.0 90.0)
  end
  begin
     id 23
     name lthumb
     direction 0.707107 -6.35001e-011 0.707107   
     length 0.711354   
     axis -90 45 2.85299e-015   XYZ
    dof rx rz
    limits (-45.0 45.0)
           (-45.0 45.0)
  end
  begin
     id 24 
     name rclavicle
     direction -0.938556 0.342765 -0.0403177   
     length 3.27019  
     axis 0 0 0   XYZ 
    dof ry rz
    limits (-10.0 20.0)
           (-20.0 0.0)
  end
  begin
     id 25 
     name rhumerus
     direction -1 -4.48966e-011 2.52291e-027  
     length 5.38183   
     axis 180 30 90   XYZ
    dof rx ry rz
    limits (-90.0 60.0)
           (-90.0 90.0)
           (-90.0 90.0)
  end
  begin
     id 26 
     name rradius
     direction -1 -4.4896e-011 1.5797e-027   
     length 3.16988   
     axis 180 30 90   XYZ
    dof rx
    limits (-10.0 170.0)
  end
  begin
     id 27 
     name rwrist
     direction -1 -4.48947e-011 2.56952e-028   
     length 1.58494   
     axis -5.12785e-016 -90 -90   XYZ
    dof ry
    limits (-180.0 0.0)
  end
  begin
     id 28
     name rhand
     direction -1 -4.49098e-011 5.13905e-028   
     length 0.637679   
     axis -3.27915e-016 -90 -90   XYZ
    dof rx rz
    limits (-90.0 90.0)
           (-45.0 45.0)
  end
  begin
     id 29
     name rfingers
     direction -1 -4.49026e-011 1.02781e-027   
     length 0.514113   
     axis -6.5583e-016 -90 -90   XYZ
    dof rx
    limits (0.0 90.0)
  end
  begin
     id 30
     name rthumb
     direction -0.707107 -6.3491e-011 0.707107   
     length 0.738167   
     axis -90 -45 -2.85299e-015   XYZ
    dof rx rz
    limits (-45.0 45.0)
           (-45.0 45.0)
  end
:hierarchy
  begin
    root lhipjoint rhipjoint lowerback
    lhipjoint lfemur
    lfemur ltibia
    ltibia lfoot
    lfoot ltoes
    rhipjoint rfemur
    rfemur rtibia
    rtibia rfoot
    rfoot rtoes
    lowerback upperback
    upperback thorax
    thorax lowerneck lclavicle rclavicle
    lowerneck upperneck
    upperneck head
    lclavicle lhumerus
    lhumerus lradius
    lradius lwrist
    lwrist lhand lthumb
    lhand lfingers
    rclavicle rhumerus
    rhumerus rradius
    rradius rwrist
    rwrist rhand rthumb
    rhand rfingers
  end

#!OML:ASF H:\Swim\Project 1\Capture day 1\Session 1\swimmer.ASF
:FULLY-SPECIFIED
:DEGREES
1805
root 2.86842 16.8568 -21.9508 98.5011 -7.95588 27.812
lowerback 4.85631 -3.59406 -6.57056
upperback -7.42698 -6.24792 -6.68575
thorax -10.8421 -2.84769 -2.68046
lowerneck -1.9116 -12.5692 -11.1156
upperneck -17.8485 -15.515 17.4593
head -2.58571 -8.20838 7.13604
rclavicle -4.13472e-014 -9.93923e-015
rhumerus 18.3638 -4.40445 -16.4075
rradius 52.5989
rwrist -191.504
rhand -31.2745 -7.1625
rfingers 7.12502
rthumb -4.54825 -37.0937
lclavicle -4.13472e-014 -9.93923e-015
lhumerus 67.2584 -15.0574 13.7737
lradius 42.826
lwrist -11.6982
lhand -11.6269 -7.29123
lfingers 7.12502
lthumb 14.4165 22.1881
rfemur -36.8242 -19.6839 7.13305
rtibia 45.001
rfoot -15.6019 -18.3904
rtoes 7.35173
lfemur -39.0872 -26.256 -28.6695
ltibia 26.1173
lfoot 11.9974 -6.94388
ltoes -7.01935
1806
root 2.864 16.8566 -21.9536 98.3789 -7.93007 27.8217
lowerback 4.92823 -3.6097 -6.65989
upperback -7.38886 -6.28983 -6.76795
thorax -10.8459 -2.86392 -2.71127
lowerneck -1.8472 -12.6052 -11.2263
upperneck -17.9336 -15.5583 17.5483
head -2.59675 -8.23177 7.18519
rclavicle -6.04305e-014 -3.06128e-014
rhumerus 17.9885 -4.27797 -16.9662
rradius 52.2406
rwrist -192.17
rhand -31.264 -6.89641
rfingers 7.12502
rthumb -4.53805 -36.8278
lclavicle -6.04305e-014 -3.06128e-014
lhumerus 67.4296 -15.0398 13.4589
lradius 42.8108
lwrist -11.4046
lhand -11.4144 -7.27809
lfingers 7.12502
lthumb 14.6213 22.1865
rfemur -37.1356 -19.6548 7.42669
rtibia 45.2225
rfoot -14.9903 -18.0499
rtoes 6.68095
lfemur -39.09 -26.4398 -28.7893
ltibia 25.8239
lfoot 12.1285 -7.5985
ltoes -6.36918
1807
root 2.85816 16.856 -21.9557 98.2733 -7.90263 27.8309
lowerback 5.02128 -3.60976 -6.78273
upperback -7.36622 -6.31727 -6.84567
thorax -10.8763 -2.86897 -2.7198
lowerneck -1.77597 -12.6566 -11.3542
upperneck -18.0156 -15.6214 17.6607
head -2.60116 -8.26573 7.2426
rclavicle 9.85972e-014 5.12864e-014
rhumerus 17.5848 -4.14171 -17.4808
rradius 51.8688
rwrist -192.812
rhand -31.2532 -6.59428
rfingers 7.12502
rthumb -4.52763 -36.5259
lclavicle 9.85972e-014 5.12864e-014
lhumerus 67.5867 -15.155 13.5246
lradius 42.7142
lwrist -11.4804
lhand -11.2174 -7.29672
lfingers 7.12502
lthumb 14.8111 22.154
rfemur -37.4857 -19.6291 7.74157
rtibia 45.4455
rfoot -14.3134 -17.6793
rtoes 5.97312
lfemur -39.1113 -26.5844 -28.8843
ltibia 25.578
lfoot 12.2672 -8.13136
ltoes -5.74358
1808
root 2.85088 16.8551 -21.9572 98.1883 -7.87235 27.8444
lowerback 5.10417 -3.60991 -6.91123
upperback -7.32935 -6.34326 -6.93235
thorax -10.8849 -2.87377 -2.73584
lowerneck -1.73209 -12.714 -11.4593
upperneck -18.1091 -15.6861 17.8003
head -2.60305 -8.30294 7.30321
rclavicle -1.90833e-014 -2.54444e-014
rhumerus 17.192 -4.04515 -18.008
rradius 51.4946
rwrist -193.372
rhand -31.2381 -6.26768
rfingers 7.12502
rthumb -4.51305 -36.1996
lclavicle -1.90833e-014 -2.54444e-014
lhumerus 67.7725 -15.2329 13.5658
lradius 42.6282
lwrist -11.5845
lhand -11.063 -7.29942
lfingers 7.12502
lthumb 14.9598 22.1403
rfemur -37.8753 -19.6061 8.07728
rtibia 45.6701
rfoot -13.5905 -17.2737
rtoes 5.34208
lfemur -39.1553 -26.6937 -28.9499
ltibia 25.3799
lfoot 12.3841 -8.53939
ltoes -5.22335
1809
root 2.84209 16.854 -21.9586 98.1261 -7.84571 27.8618
lowerback 5.17604 -3.61156 -7.05225
upperback -7.2857 -6.37101 -7.02608
thorax -10.8789 -2.87907 -2.7532
lowerneck -1.71115 -12.7724 -11.5336
upperneck -18.2035 -15.7486 17.9433
head -2.60375 -8.34056 7.35886
rclavicle 6.36111e-014 2.38542e-015
rhumerus 16.8061 -3.96533 -18.5316
rradius 51.1429
rwrist -193.832
rhand -31.2332 -5.94145
rfingers 7.12502
rthumb -4.50834 -35.8735
lclavicle 6.36111e-014 2.38542e-015
lhumerus 67.9762 -15.2856 13.5858
lradius 42.5539
lwrist -11.6854
lhand -10.9381 -7.29139
lfingers 7.12502
lthumb 15.0801 22.1393
rfemur -38.3061 -19.6001 8.42935
rtibia 45.8967
rfoot -12.8324 -16.8142
rtoes 4.8616
lfemur -39.2243 -26.78 -28.9867
ltibia 25.2322
lfoot 12.4358 -8.80518
ltoes -4.74099
1810
root 2.83201 16.8526 -21.9596 98.078 -7.81507 27.8841
lowerback 5.25462 -3.61415 -7.20173
upperback -7.24855 -6.40258 -7.11825
thorax -10.8834 -2.8851 -2.76344
lowerneck -1.68522 -12.8247 -11.5866
upperneck -18.2949 -15.8036 18.0763
head -2.6081 -8.37519 7.40921
rclavicle 1.27222e-014 8.18993e-014
rhumerus 16.417 -3.86383 -19.0381
rradius 50.8333
rwrist -194.195
rhand -31.2385 -5.62665
rfingers 7.12502
rthumb -4.51346 -35.5586
lclavicle 1.27222e-014 8.18993e-014
lhumerus 68.1774 -15.3442 13.6161
lradius 42.491
lwrist -11.7648
lhand -10.7906 -7.28728
lfingers 7.12502
lthumb 15.2222 22.1327
rfemur -38.7652 -19.5937 8.79717
rtibia 46.1242
rfoot -12.0693 -16.3297
rtoes 4.49682
lfemur -39.3093 -26.8614 -28.9831
ltibia 25.1369
lfoot 12.3906 -8.90932
ltoes -4.43061
1811
root 2.82073 16.851 -21.9604 98.0374 -7.7684 27.912
lowerback 5.34797 -3.61814 -7.34783
upperback -7.21899 -6.43804 -7.20107
thorax -10.9047 -2.89232 -2.76402
lowerneck -1.67577 -12.8716 -11.6284
upperneck -18.3609 -15.8529 18.1901
head -2.60604 -8.40542 7.44983
rclavicle -4.45278e-014 6.79844e-014
rhumerus 16.0321 -3.73506 -19.5148
rradius 50.5706
rwrist -194.48
rhand -31.2647 -5.33154
rfingers 7.12502
rthumb -4.53874 -35.2629
lclavicle -4.45278e-014 6.79844e-014
lhumerus 68.3595 -15.4164 13.7101
lradius 42.4345
lwrist -11.8009
lhand -10.5589 -7.32174
lfingers 7.12502
lthumb 15.4454 22.0812
rfemur -39.2371 -19.5812 9.18939
rtibia 46.3487
rfoot -11.3485 -15.8173
rtoes 4.33794
lfemur -39.4006 -26.9342 -28.9341
ltibia 25.0941
lfoot 12.2335 -8.85482
ltoes -4.31702
1812
root 2.80864 16.8491 -21.9608 97.9951 -7.7135 27.9422
lowerback 5.45649 -3.62398 -7.49534
upperback -7.19142 -6.47797 -7.27494
thorax -10.936 -2.9008 -2.75258
lowerneck -1.66466 -12.9091 -11.6606
upperneck -18.4214 -15.891 18.2899
head -2.60642 -8.42966 7.48559
rclavicle 5.725e-014 4.85035e-014
rhumerus 15.6609 -3.60875 -19.9982
rradius 50.3533
rwrist -194.664
rhand -31.3358 -5.07473
rfingers 7.12502
rthumb -4.60737 -35.0046
lclavicle 5.725e-014 4.85035e-014
lhumerus 68.5321 -15.4668 13.7695
lradius 42.404
lwrist -11.7145
lhand -10.2744 -7.36568
lfingers 7.12502
lthumb 15.7194 22.0159
rfemur -39.7089 -19.5589 9.59049
rtibia 46.5673
rfoot -10.6742 -15.314
rtoes 4.32196
lfemur -39.4806 -26.9898 -28.861
ltibia 25.1006
lfoot 11.9655 -8.64803
ltoes -4.43748
1813
root 2.79589 16.8468 -21.9606 97.9427 -7.64795 27.9749
lowerback 5.58802 -3.63224 -7.64435
upperback -7.16416 -6.52412 -7.3396
thorax -10.9803 -2.91124 -2.72802
lowerneck -1.65239 -12.9355 -11.6822
upperneck -18.4781 -15.9146 18.3802
head -2.60982 -8.44661 7.5179
rclavicle -6.36111e-015 -5.36719e-014
rhumerus 15.3092 -3.46905 -20.4522
rradius 50.177
rwrist -194.812
rhand -31.4497 -4.8493
rfingers 7.12502
rthumb -4.71735 -34.7768
lclavicle -6.36111e-015 -5.36719e-014
lhumerus 68.6777 -15.5257 13.8811
lradius 42.3784
lwrist -11.5802
lhand -9.94408 -7.43484
lfingers 7.12502
lthumb 16.0375 21.9214
rfemur -40.1653 -19.5154 9.99431
rtibia 46.7755
rfoot -10.0811 -14.8377
rtoes 4.33316
lfemur -39.5369 -27.0282 -28.7678
ltibia 25.1518
lfoot 11.6184 -8.29285
ltoes -4.76991
